<svg width="512" height="512" viewBox="0 0 512 512" fill="none" xmlns="http://www.w3.org/2000/svg">
<g clip-path="url(#clip0_104_2)">
<rect width="512" height="512" fill="white"/>
<rect width="512" height="512" fill="url(#paint0_linear_104_2)"/>
<path d="M66.4886 275H51.9723V235.727H66.4695C70.4709 235.727 73.9162 236.513 76.8054 238.086C79.7074 239.646 81.9446 241.896 83.517 244.836C85.0895 247.763 85.8757 251.266 85.8757 255.344C85.8757 259.435 85.0895 262.951 83.517 265.891C81.9574 268.832 79.7266 271.088 76.8246 272.661C73.9226 274.22 70.4773 275 66.4886 275ZM61.4645 266.908H66.1243C68.3232 266.908 70.1832 266.537 71.7045 265.795C73.2386 265.041 74.3956 263.82 75.1754 262.133C75.968 260.433 76.3643 258.17 76.3643 255.344C76.3643 252.519 75.968 250.269 75.1754 248.594C74.3828 246.907 73.2131 245.692 71.6662 244.951C70.1321 244.197 68.2401 243.82 65.9901 243.82H61.4645V266.908ZM91.4176 275V235.727H118.801V243.436H100.91V251.49H117.401V259.218H100.91V267.291H118.801V275H91.4176ZM133.663 235.727L142.445 264.491H142.771L151.554 235.727H162.178L148.927 275H136.29L123.039 235.727H133.663ZM166.406 275V235.727H193.789V243.436H175.898V251.49H192.39V259.218H175.898V267.291H193.789V275H166.406ZM199.734 275V235.727H209.226V267.291H225.564V275H199.734ZM266.016 255.364C266.016 259.685 265.185 263.347 263.523 266.352C261.862 269.356 259.612 271.638 256.773 273.197C253.948 274.757 250.778 275.537 247.262 275.537C243.734 275.537 240.557 274.751 237.732 273.178C234.906 271.606 232.663 269.324 231.001 266.332C229.352 263.328 228.527 259.672 228.527 255.364C228.527 251.043 229.352 247.38 231.001 244.376C232.663 241.371 234.906 239.089 237.732 237.53C240.557 235.97 243.734 235.19 247.262 235.19C250.778 235.19 253.948 235.97 256.773 237.53C259.612 239.089 261.862 241.371 263.523 244.376C265.185 247.38 266.016 251.043 266.016 255.364ZM256.313 255.364C256.313 252.807 255.949 250.646 255.22 248.882C254.504 247.118 253.469 245.782 252.114 244.874C250.771 243.967 249.154 243.513 247.262 243.513C245.383 243.513 243.766 243.967 242.411 244.874C241.055 245.782 240.013 247.118 239.285 248.882C238.569 250.646 238.211 252.807 238.211 255.364C238.211 257.92 238.569 260.081 239.285 261.845C240.013 263.609 241.055 264.945 242.411 265.853C243.766 266.761 245.383 267.214 247.262 267.214C249.154 267.214 250.771 266.761 252.114 265.853C253.469 264.945 254.504 263.609 255.22 261.845C255.949 260.081 256.313 257.92 256.313 255.364ZM271.558 275V235.727H287.781C290.722 235.727 293.259 236.303 295.394 237.453C297.542 238.591 299.197 240.183 300.361 242.228C301.524 244.261 302.106 246.626 302.106 249.323C302.106 252.033 301.511 254.405 300.322 256.438C299.146 258.457 297.465 260.023 295.279 261.136C293.093 262.248 290.498 262.804 287.494 262.804H277.484V255.325H285.729C287.161 255.325 288.357 255.076 289.315 254.577C290.287 254.079 291.022 253.382 291.521 252.487C292.019 251.58 292.268 250.525 292.268 249.323C292.268 248.109 292.019 247.06 291.521 246.178C291.022 245.283 290.287 244.593 289.315 244.107C288.344 243.621 287.148 243.379 285.729 243.379H281.05V275H271.558ZM306.785 235.727H318.54L328.511 260.043H328.972L338.943 235.727H350.698V275H341.455V250.876H341.129L331.695 274.751H325.788L316.354 250.742H316.028V275H306.785V235.727ZM356.619 275V235.727H384.002V243.436H366.111V251.49H382.602V259.218H366.111V267.291H384.002V275H356.619ZM423.371 235.727V275H415.317L399.688 252.334H399.439V275H389.947V235.727H398.116L413.572 258.355H413.898V235.727H423.371ZM428.055 243.436V235.727H461.249V243.436H449.34V275H439.982V243.436H428.055Z" fill="white"/>
</g>
<defs>
<linearGradient id="paint0_linear_104_2" x1="0" y1="0" x2="512" y2="512" gradientUnits="userSpaceOnUse">
<stop/>
<stop offset="1" stop-opacity="0.87"/>
</linearGradient>
<clipPath id="clip0_104_2">
<rect width="512" height="512" fill="white"/>
</clipPath>
</defs>
</svg>
