<svg width="512" height="512" viewBox="0 0 512 512" fill="none" xmlns="http://www.w3.org/2000/svg">
<g clip-path="url(#clip0_104_9)">
<rect width="512" height="512" fill="white"/>
<rect width="512" height="512" fill="url(#paint0_linear_104_9)"/>
<path d="M74.9723 275V235.727H91.1953C94.1357 235.727 96.6733 236.303 98.8082 237.453C100.956 238.591 102.612 240.183 103.775 242.228C104.938 244.261 105.52 246.626 105.52 249.323C105.52 252.033 104.925 254.405 103.737 256.438C102.56 258.457 100.879 260.023 98.6932 261.136C96.5071 262.248 93.9119 262.804 90.9077 262.804H80.8977V255.325H89.1435C90.5753 255.325 91.7706 255.076 92.7294 254.577C93.701 254.079 94.4361 253.382 94.9347 252.487C95.4332 251.58 95.6825 250.525 95.6825 249.323C95.6825 248.109 95.4332 247.06 94.9347 246.178C94.4361 245.283 93.701 244.593 92.7294 244.107C91.7578 243.621 90.5625 243.379 89.1435 243.379H84.4645V275H74.9723ZM110.199 275V235.727H126.422C129.362 235.727 131.9 236.258 134.035 237.319C136.183 238.367 137.838 239.876 139.001 241.844C140.165 243.8 140.746 246.121 140.746 248.805C140.746 251.528 140.152 253.842 138.963 255.747C137.774 257.639 136.087 259.084 133.901 260.081C131.714 261.065 129.126 261.558 126.134 261.558H115.875V254.079H124.37C125.802 254.079 126.997 253.893 127.956 253.523C128.928 253.139 129.663 252.564 130.161 251.797C130.66 251.017 130.909 250.02 130.909 248.805C130.909 247.591 130.66 246.587 130.161 245.795C129.663 244.989 128.928 244.388 127.956 243.992C126.984 243.583 125.789 243.379 124.37 243.379H119.691V275H110.199ZM132.309 257.051L142.089 275H131.734L122.146 257.051H132.309ZM183.02 255.364C183.02 259.685 182.189 263.347 180.527 266.352C178.865 269.356 176.615 271.638 173.777 273.197C170.952 274.757 167.782 275.537 164.266 275.537C160.738 275.537 157.561 274.751 154.735 273.178C151.91 271.606 149.667 269.324 148.005 266.332C146.355 263.328 145.531 259.672 145.531 255.364C145.531 251.043 146.355 247.38 148.005 244.376C149.667 241.371 151.91 239.089 154.735 237.53C157.561 235.97 160.738 235.19 164.266 235.19C167.782 235.19 170.952 235.97 173.777 237.53C176.615 239.089 178.865 241.371 180.527 244.376C182.189 247.38 183.02 251.043 183.02 255.364ZM173.317 255.364C173.317 252.807 172.953 250.646 172.224 248.882C171.508 247.118 170.473 245.782 169.118 244.874C167.775 243.967 166.158 243.513 164.266 243.513C162.387 243.513 160.77 243.967 159.414 244.874C158.059 245.782 157.017 247.118 156.289 248.882C155.573 250.646 155.215 252.807 155.215 255.364C155.215 257.92 155.573 260.081 156.289 261.845C157.017 263.609 158.059 264.945 159.414 265.853C160.77 266.761 162.387 267.214 164.266 267.214C166.158 267.214 167.775 266.761 169.118 265.853C170.473 264.945 171.508 263.609 172.224 261.845C172.953 260.081 173.317 257.92 173.317 255.364ZM203.078 275H188.562V235.727H203.059C207.061 235.727 210.506 236.513 213.395 238.086C216.297 239.646 218.534 241.896 220.107 244.836C221.679 247.763 222.466 251.266 222.466 255.344C222.466 259.435 221.679 262.951 220.107 265.891C218.547 268.832 216.316 271.088 213.414 272.661C210.512 274.22 207.067 275 203.078 275ZM198.054 266.908H202.714C204.913 266.908 206.773 266.537 208.294 265.795C209.828 265.041 210.985 263.82 211.765 262.133C212.558 260.433 212.954 258.17 212.954 255.344C212.954 252.519 212.558 250.269 211.765 248.594C210.973 246.907 209.803 245.692 208.256 244.951C206.722 244.197 204.83 243.82 202.58 243.82H198.054V266.908ZM251.767 235.727H261.24V261.059C261.24 263.987 260.543 266.537 259.15 268.71C257.756 270.871 255.813 272.545 253.32 273.734C250.827 274.911 247.931 275.499 244.633 275.499C241.297 275.499 238.382 274.911 235.889 273.734C233.396 272.545 231.459 270.871 230.078 268.71C228.698 266.537 228.007 263.987 228.007 261.059V235.727H237.5V260.234C237.5 261.589 237.794 262.798 238.382 263.859C238.983 264.92 239.82 265.751 240.894 266.352C241.968 266.952 243.214 267.253 244.633 267.253C246.052 267.253 247.292 266.952 248.353 266.352C249.427 265.751 250.265 264.92 250.865 263.859C251.466 262.798 251.767 261.589 251.767 260.234V235.727ZM302.838 249.956H293.249C293.122 248.972 292.86 248.083 292.463 247.29C292.067 246.498 291.543 245.82 290.891 245.258C290.239 244.695 289.465 244.267 288.57 243.973C287.688 243.666 286.71 243.513 285.637 243.513C283.732 243.513 282.089 243.979 280.708 244.913C279.34 245.846 278.286 247.195 277.544 248.959C276.816 250.723 276.451 252.858 276.451 255.364C276.451 257.972 276.822 260.158 277.563 261.922C278.318 263.673 279.372 264.996 280.727 265.891C282.095 266.773 283.713 267.214 285.579 267.214C286.627 267.214 287.58 267.08 288.436 266.812C289.306 266.543 290.066 266.153 290.718 265.642C291.383 265.118 291.926 264.485 292.348 263.744C292.783 262.989 293.083 262.139 293.249 261.193L302.838 261.251C302.671 262.989 302.166 264.702 301.323 266.39C300.492 268.077 299.347 269.618 297.89 271.011C296.433 272.392 294.656 273.491 292.559 274.31C290.475 275.128 288.085 275.537 285.387 275.537C281.833 275.537 278.65 274.757 275.838 273.197C273.038 271.625 270.826 269.337 269.203 266.332C267.579 263.328 266.767 259.672 266.767 255.364C266.767 251.043 267.592 247.38 269.241 244.376C270.89 241.371 273.121 239.089 275.933 237.53C278.746 235.97 281.897 235.19 285.387 235.19C287.765 235.19 289.964 235.523 291.984 236.188C294.004 236.839 295.781 237.798 297.315 239.064C298.849 240.317 300.095 241.857 301.054 243.685C302.013 245.513 302.607 247.604 302.838 249.956ZM306.984 243.436V235.727H340.178V243.436H328.27V275H318.912V243.436H306.984ZM354.306 235.727V275H344.814V235.727H354.306ZM397.333 255.364C397.333 259.685 396.502 263.347 394.84 266.352C393.178 269.356 390.928 271.638 388.09 273.197C385.265 274.757 382.094 275.537 378.578 275.537C375.05 275.537 371.873 274.751 369.048 273.178C366.223 271.606 363.979 269.324 362.317 266.332C360.668 263.328 359.843 259.672 359.843 255.364C359.843 251.043 360.668 247.38 362.317 244.376C363.979 241.371 366.223 239.089 369.048 237.53C371.873 235.97 375.05 235.19 378.578 235.19C382.094 235.19 385.265 235.97 388.09 237.53C390.928 239.089 393.178 241.371 394.84 244.376C396.502 247.38 397.333 251.043 397.333 255.364ZM387.63 255.364C387.63 252.807 387.265 250.646 386.537 248.882C385.821 247.118 384.785 245.782 383.43 244.874C382.088 243.967 380.471 243.513 378.578 243.513C376.699 243.513 375.082 243.967 373.727 244.874C372.372 245.782 371.33 247.118 370.601 248.882C369.885 250.646 369.527 252.807 369.527 255.364C369.527 257.92 369.885 260.081 370.601 261.845C371.33 263.609 372.372 264.945 373.727 265.853C375.082 266.761 376.699 267.214 378.578 267.214C380.471 267.214 382.088 266.761 383.43 265.853C384.785 264.945 385.821 263.609 386.537 261.845C387.265 260.081 387.63 257.92 387.63 255.364ZM436.299 235.727V275H428.245L412.616 252.334H412.367V275H402.875V235.727H411.044L426.5 258.355H426.826V235.727H436.299Z" fill="white"/>
</g>
<defs>
<linearGradient id="paint0_linear_104_9" x1="0" y1="0" x2="512" y2="512" gradientUnits="userSpaceOnUse">
<stop/>
<stop offset="1" stop-opacity="0.87"/>
</linearGradient>
<clipPath id="clip0_104_9">
<rect width="512" height="512" fill="white"/>
</clipPath>
</defs>
</svg>
