<svg width="512" height="512" viewBox="0 0 512 512" fill="none" xmlns="http://www.w3.org/2000/svg">
<g clip-path="url(#clip0_104_12)">
<rect width="512" height="512" fill="white"/>
<rect width="512" height="512" fill="url(#paint0_linear_104_12)"/>
<path d="M158.2 247.501C158.072 246.095 157.504 245.002 156.494 244.222C155.496 243.43 154.071 243.033 152.217 243.033C150.99 243.033 149.967 243.193 149.149 243.513C148.331 243.832 147.717 244.273 147.308 244.836C146.899 245.386 146.688 246.018 146.675 246.734C146.65 247.322 146.765 247.84 147.021 248.288C147.289 248.735 147.673 249.131 148.171 249.477C148.683 249.809 149.296 250.103 150.012 250.359C150.728 250.614 151.533 250.838 152.428 251.03L155.803 251.797C157.746 252.219 159.46 252.781 160.942 253.484C162.438 254.188 163.691 255.025 164.701 255.996C165.724 256.968 166.497 258.087 167.021 259.352C167.545 260.618 167.814 262.037 167.827 263.609C167.814 266.089 167.188 268.218 165.947 269.995C164.707 271.772 162.924 273.134 160.597 274.08C158.283 275.026 155.49 275.499 152.217 275.499C148.932 275.499 146.068 275.006 143.626 274.022C141.185 273.038 139.286 271.542 137.931 269.535C136.576 267.528 135.879 264.99 135.841 261.922H144.93C145.007 263.188 145.346 264.242 145.947 265.086C146.548 265.93 147.372 266.569 148.42 267.004C149.482 267.438 150.709 267.656 152.102 267.656C153.381 267.656 154.467 267.483 155.362 267.138C156.27 266.793 156.967 266.313 157.452 265.7C157.938 265.086 158.188 264.383 158.2 263.59C158.188 262.849 157.957 262.216 157.51 261.692C157.063 261.155 156.372 260.695 155.439 260.311C154.518 259.915 153.342 259.55 151.911 259.218L147.807 258.259C144.406 257.479 141.728 256.22 139.772 254.482C137.816 252.73 136.844 250.365 136.857 247.386C136.844 244.957 137.496 242.829 138.813 241.001C140.13 239.173 141.952 237.747 144.278 236.724C146.605 235.702 149.258 235.19 152.237 235.19C155.279 235.19 157.919 235.708 160.156 236.744C162.406 237.766 164.151 239.205 165.391 241.058C166.631 242.912 167.264 245.06 167.29 247.501H158.2ZM171.336 243.436V235.727H204.53V243.436H192.621V275H183.263V243.436H171.336ZM212.756 275H202.555L215.805 235.727H228.442L241.693 275H231.491L222.268 245.622H221.961L212.756 275ZM211.395 259.544H232.719V266.754H211.395V259.544ZM269.849 248.556C269.631 247.751 269.312 247.041 268.89 246.428C268.468 245.801 267.95 245.271 267.336 244.836C266.723 244.401 266.02 244.075 265.227 243.858C264.434 243.628 263.565 243.513 262.619 243.513C260.714 243.513 259.065 243.973 257.672 244.893C256.291 245.814 255.224 247.156 254.469 248.92C253.715 250.672 253.338 252.8 253.338 255.306C253.338 257.825 253.702 259.972 254.431 261.749C255.16 263.526 256.214 264.881 257.595 265.815C258.976 266.748 260.65 267.214 262.619 267.214C264.358 267.214 265.828 266.933 267.03 266.371C268.244 265.795 269.165 264.984 269.791 263.935C270.417 262.887 270.731 261.653 270.731 260.234L272.495 260.445H262.945V253.523H279.878V258.719C279.878 262.235 279.13 265.246 277.634 267.751C276.151 270.257 274.106 272.181 271.498 273.523C268.903 274.866 265.917 275.537 262.542 275.537C258.797 275.537 255.505 274.725 252.667 273.102C249.829 271.478 247.617 269.164 246.032 266.16C244.447 263.143 243.654 259.563 243.654 255.421C243.654 252.2 244.133 249.342 245.092 246.849C246.051 244.344 247.387 242.222 249.1 240.483C250.826 238.744 252.82 237.428 255.083 236.533C257.358 235.638 259.807 235.19 262.427 235.19C264.703 235.19 266.819 235.516 268.775 236.168C270.743 236.82 272.482 237.741 273.991 238.93C275.512 240.119 276.746 241.531 277.692 243.168C278.638 244.804 279.226 246.6 279.456 248.556H269.849ZM294.964 235.727V275H285.472V235.727H294.964ZM334.347 235.727V275H326.294L310.665 252.334H310.416V275H300.923V235.727H309.093L324.548 258.355H324.874V235.727H334.347ZM366.089 248.556C365.871 247.751 365.552 247.041 365.13 246.428C364.708 245.801 364.19 245.271 363.577 244.836C362.963 244.401 362.26 244.075 361.467 243.858C360.675 243.628 359.805 243.513 358.859 243.513C356.955 243.513 355.305 243.973 353.912 244.893C352.531 245.814 351.464 247.156 350.71 248.92C349.955 250.672 349.578 252.8 349.578 255.306C349.578 257.825 349.942 259.972 350.671 261.749C351.4 263.526 352.455 264.881 353.835 265.815C355.216 266.748 356.891 267.214 358.859 267.214C360.598 267.214 362.068 266.933 363.27 266.371C364.484 265.795 365.405 264.984 366.031 263.935C366.658 262.887 366.971 261.653 366.971 260.234L368.735 260.445H359.185V253.523H376.118V258.719C376.118 262.235 375.37 265.246 373.874 267.751C372.391 270.257 370.346 272.181 367.738 273.523C365.143 274.866 362.158 275.537 358.783 275.537C355.037 275.537 351.745 274.725 348.907 273.102C346.069 271.478 343.857 269.164 342.272 266.16C340.687 263.143 339.894 259.563 339.894 255.421C339.894 252.2 340.374 249.342 341.332 246.849C342.291 244.344 343.627 242.222 345.34 240.483C347.066 238.744 349.06 237.428 351.323 236.533C353.599 235.638 356.047 235.19 358.668 235.19C360.943 235.19 363.059 235.516 365.015 236.168C366.984 236.82 368.722 237.741 370.231 238.93C371.752 240.119 372.986 241.531 373.932 243.168C374.878 244.804 375.466 246.6 375.696 248.556H366.089Z" fill="white"/>
</g>
<defs>
<linearGradient id="paint0_linear_104_12" x1="0" y1="0" x2="512" y2="512" gradientUnits="userSpaceOnUse">
<stop/>
<stop offset="1" stop-opacity="0.87"/>
</linearGradient>
<clipPath id="clip0_104_12">
<rect width="512" height="512" fill="white"/>
</clipPath>
</defs>
</svg>
